<?xml version="1.0" encoding="UTF-8" standalone="no"?>
<!-- Created with Inkscape (http://www.inkscape.org/) -->

<svg
   xmlns:dc="http://purl.org/dc/elements/1.1/"
   xmlns:cc="http://creativecommons.org/ns#"
   xmlns:rdf="http://www.w3.org/1999/02/22-rdf-syntax-ns#"
   xmlns:svg="http://www.w3.org/2000/svg"
   xmlns="http://www.w3.org/2000/svg"
   xmlns:sodipodi="http://sodipodi.sourceforge.net/DTD/sodipodi-0.dtd"
   xmlns:inkscape="http://www.inkscape.org/namespaces/inkscape"
   width="210mm"
   height="297mm"
   viewBox="0 0 210 297"
   version="1.1"
   id="svg8"
   inkscape:version="0.92.4 (5da689c313, 2019-01-14)"
   sodipodi:docname="logo.svg">
  <defs
     id="defs2" />
  <sodipodi:namedview
     id="base"
     pagecolor="#ffffff"
     bordercolor="#666666"
     borderopacity="1.0"
     inkscape:pageopacity="0.0"
     inkscape:pageshadow="2"
     inkscape:zoom="0.5"
     inkscape:cx="299.65645"
     inkscape:cy="362.96286"
     inkscape:document-units="mm"
     inkscape:current-layer="layer1"
     showgrid="false"
     inkscape:window-width="2880"
     inkscape:window-height="1514"
     inkscape:window-x="3229"
     inkscape:window-y="250"
     inkscape:window-maximized="1" />
  <metadata
     id="metadata5">
    <rdf:RDF>
      <cc:Work
         rdf:about="">
        <dc:format>image/svg+xml</dc:format>
        <dc:type
           rdf:resource="http://purl.org/dc/dcmitype/StillImage" />
        <dc:title />
      </cc:Work>
    </rdf:RDF>
  </metadata>
  <g
     inkscape:label="Layer 1"
     inkscape:groupmode="layer"
     id="layer1">
    <path
       id="path829-4"
       style="color:#000000;font-style:normal;font-variant:normal;font-weight:normal;font-stretch:normal;font-size:medium;line-height:normal;font-family:sans-serif;font-variant-ligatures:normal;font-variant-position:normal;font-variant-caps:normal;font-variant-numeric:normal;font-variant-alternates:normal;font-feature-settings:normal;text-indent:0;text-align:start;text-decoration:none;text-decoration-line:none;text-decoration-style:solid;text-decoration-color:#000000;letter-spacing:normal;word-spacing:normal;text-transform:none;writing-mode:lr-tb;direction:ltr;text-orientation:mixed;dominant-baseline:auto;baseline-shift:baseline;text-anchor:start;white-space:normal;shape-padding:0;clip-rule:nonzero;display:inline;overflow:visible;visibility:visible;opacity:1;isolation:auto;mix-blend-mode:normal;color-interpolation:sRGB;color-interpolation-filters:linearRGB;solid-color:#000000;solid-opacity:1;vector-effect:none;fill:#003665;fill-opacity:1;fill-rule:nonzero;stroke:none;stroke-width:0.35170713px;stroke-linecap:butt;stroke-linejoin:miter;stroke-miterlimit:4;stroke-dasharray:none;stroke-dashoffset:0;stroke-opacity:1;color-rendering:auto;image-rendering:auto;shape-rendering:auto;text-rendering:auto;enable-background:accumulate"
       d="m 171.03482,92.569313 c -4.9081,1.769919 -31.8102,-37.88356 -53.31893,-19.959603 -11.74278,9.785651 -20.951004,21.565445 -22.089554,34.8932 -1.13854,13.32775 1.55094,25.31328 22.006174,41.14382 40.82739,31.59684 54.03061,62.63602 57.04457,85.77258 2.98617,22.92328 -3.99061,37.98159 -4.12022,38.25916 l -1.27959,-1.65105 c 0.58225,-1.29348 0.19778,-14.46456 -2.6929,-36.65481 -3.02578,-23.22716 -16.29129,-54.36077 -57.17781,-86.00337 C 89.004276,132.57963 86.242506,120.7785 87.122866,107.6877 c 0.88036,-13.090815 9.68295,-24.678753 21.058464,-34.307256 22.73192,-19.240868 56.37408,4.558022 55.71877,-30.633561 4.294,-0.740944 5.33817,49.872743 7.13472,49.82243 z M 22.761297,38.550365 C 97.724926,271.61265 165.1772,213.83905 165.1772,213.83905 l 5.37966,58.83942 -2.03325,-1.77666 c 0,0 5.5866,-9.93236 -26.11629,-31.72319 C 121.78149,225.00158 67.889814,201.24286 52.803177,193.02966 12.696562,171.19553 22.761297,38.550365 22.761297,38.550365 Z"
       inkscape:connector-curvature="0" />
    <path
       sodipodi:type="star"
       style="opacity:1;fill:#003665;fill-opacity:1;fill-rule:nonzero;stroke:#003665;stroke-width:0.04938553;stroke-linecap:round;stroke-miterlimit:4;stroke-dasharray:none;stroke-dashoffset:0;stroke-opacity:1"
       id="path816"
       sodipodi:sides="3"
       sodipodi:cx="158.42403"
       sodipodi:cy="264.54346"
       sodipodi:r1="1.8961089"
       sodipodi:r2="3.7922177"
       sodipodi:arg1="0.70432625"
       sodipodi:arg2="1.7515238"
       inkscape:flatsided="false"
       inkscape:rounded="0"
       inkscape:randomized="1.93422e-16"
       d="m 159.86895,265.77123 -2.12656,2.50268 -1.10411,-3.093 -1.10411,-3.09299 3.23067,0.59031 3.23067,0.59031 z"
       inkscape:transform-center-x="-0.27877687"
       inkscape:transform-center-y="-0.7347927"
       transform="matrix(0.35188069,0.2135562,-0.21622772,0.32614295,170.46009,152.21188)" />
  </g>
</svg>
